# xmcd
#
# Track frame offsets: 
#        150
#        9145
#        19517
#        30745
#        35445
#        46747
#        59555
#        69302
#        79032
#        88077
#        99542
#        111507
#        123400
#        135555
#        147472
#        156247
#        167895
#        176597
#        189305
#        203432
#        216125
#
# Disc length: 3061 seconds
#
# Revision: 1
# Processed by: cddbd v1.5.2PL0 Copyright (c) Steve Scherf et al.
# Submitted via: ExactAudioCopy v1.1
#
DISCID=190bf315
DTITLE=Various Artist - Pebbles - Volume 2
DYEAR=1992
DGENRE=Pop
TTITLE0=The Satans - Makin' Deals (mono)
TTITLE1=The Moving Sidewalks - 99th Floor (mono)
TTITLE2=The Sons Of Adam - Feathered Fish (mono)
TTITLE3=The Electric Prunes - Wah Wah Pedal (radio spot) (mono)
TTITLE4=The Road - You Rub Me The Wrong Way (mono)
TTITLE5=The Lyrics - So What (mono)
TTITLE6=The Buddahs - Lost Innocence (mono)
TTITLE7=The Zakary Thaks - Bad Girl (mono)
TTITLE8=Randy Alvey and Green Fuzz - Green Fuzz (mono)
TTITLE9=The Little Boy Blues - I Can Only Give You Everything (mono)
TTITLE10=The Dovers - She's Gone (mono)
TTITLE11=Phil and The Frantics - I Must Run (mono)
TTITLE12=The Dovers - What Am I Going To Do (mono)
TTITLE13=The Choir - Its Cold Outside (mono)
TTITLE14=Bobby Fuller - Wine, Wine, Wine (mono)
TTITLE15=The Choir - I'm Going Home (mono)
TTITLE16=The Avengers - Be A Caveman (mono)
TTITLE17=The Mark IV - Don't Want Your Lovin' (mono)
TTITLE18=Satan and The D-Men - She'll Lie (mono)
TTITLE19=The Undesyded - Freedom Of Love (mono)
TTITLE20=The Quid - Crazy Things (mono)
EXTD=
EXTT0=
EXTT1=
EXTT2=
EXTT3=
EXTT4=
EXTT5=
EXTT6=
EXTT7=
EXTT8=
EXTT9=
EXTT10=
EXTT11=
EXTT12=
EXTT13=
EXTT14=
EXTT15=
EXTT16=
EXTT17=
EXTT18=
EXTT19=
EXTT20=
PLAYORDER=
